<svg t="1732435752584" class="icon" viewBox="0 0 1024 1024" version="1.1" xmlns="http://www.w3.org/2000/svg" p-id="8700" width="200" height="200"><path d="M476.5 1024c-2.8 0-5.7-0.4-8.5-1.1-12.9-3.6-22.2-14.8-23.4-28.1L413.1 640H128c-12.3 0-23.4-7-28.8-18.1-5.4-11-3.9-24.1 3.7-33.8L557 12.2c8.5-10.8 22.7-14.8 35.6-10.4 12.9 4.5 21.5 16.6 21.5 30.3v347.1H896c12 0 23 6.8 28.5 17.4 5.5 10.7 4.5 23.6-2.6 33.3l-419.5 580.9c-6 8.4-15.8 13.2-25.9 13.2zM194 576h248.4c16.6 0 30.4 12.7 31.9 29.2l26.5 298.5 332.6-460.6H582.2c-17.7 0-32-14.3-32-32V124.2L194 576z" fill="#777777" p-id="8701"></path></svg>